<svg width="16" height="16" viewBox="0 0 16 16" fill="none" xmlns="http://www.w3.org/2000/svg">
<path d="M7.93043 0.417419L9.32174 3.89568L7.93043 7.37394L6.53913 3.89568L7.93043 0.417419Z" fill="#38D300"/>
<path d="M13.2767 2.65336L11.801 6.09666L8.35771 7.57236L9.83341 4.12906L13.2767 2.65336Z" fill="#38D300"/>
<path d="M15.476 8.01484L11.9978 9.40614L8.51952 8.01484L11.9978 6.62354L15.476 8.01484Z" fill="#38D300"/>
<path d="M13.2401 13.3611L9.79676 11.8854L8.32106 8.44212L11.7644 9.91782L13.2401 13.3611Z" fill="#38D300"/>
<path d="M7.87859 15.5604L6.48729 12.0822L7.87859 8.6039L9.2699 12.0822L7.87859 15.5604Z" fill="#38D300"/>
<path d="M2.53231 13.3244L4.00801 9.88112L7.45131 8.40542L5.97561 11.8487L2.53231 13.3244Z" fill="#38D300"/>
<path d="M0.333 7.963L3.81126 6.5717L7.28952 7.963L3.81126 9.35431L0.333 7.963Z" fill="#38D300"/>
<path d="M2.56898 2.61672L6.01228 4.09243L7.48798 7.53573L4.04468 6.06003L2.56898 2.61672Z" fill="#38D300"/>
</svg>
